<svg version="1" xmlns="http://www.w3.org/2000/svg" width="214.667" height="214.667" viewBox="0 0 161.000000 161.000000"><path d="M83.7 45l-7.8 3.7-7.7-1.9c-26.2-6.3-51.4-6.2-61.9.3C-6 54.7 1.1 70.9 23.4 85.9c14 9.4 37.5 20.5 53.3 25.2 5.1 1.4 4.7 2.5-1.3 4-3.3.9-4.4 1.6-4 2.6.3.8.6 1.7.6 1.9 0 .2 6.1.4 13.5.4 11.3 0 13.5-.2 13.5-1.5 0-1.8-.5-1.8 9.8-.1 17 2.8 36.1 1.7 44.1-2.4 5.2-2.6 7.3-5.4 7.8-10.4.5-3.7 0-5.4-2.1-9.1-7.6-12.9-29.6-28-56.6-38.9-8-3.2-8.5-3.6-8.8-6.6-.2-2.1.2-3.6 1.4-4.4 1.8-1.4 1.3-3.1-1.4-4.5-1.2-.6-4 .3-9.5 2.9zM55 47.5c8.9 1.4 16 2.7 16 3.1 0 .3-2 1.3-4.5 2.4-2.5 1.1-4.5 2.2-4.5 2.5 0 1.3 3.4 5.6 5.1 6.6 1.5.7 3.2.1 8.2-3.1 3.5-2.2 6.6-4 6.8-4 .2 0 .4 10 .4 22.2v22.3l-3-.3c-4.9-.5-22.5-6.7-32.7-11.5-20.9-9.8-34-21-34-29.2 0-6.2 5.9-10.3 16.1-11.2 3.1-.3 5.7-.7 5.9-.8.4-.4 16.1.4 20.2 1zm53 14.6c14 5.9 25.8 13.2 34.1 20.9 3 2.8 5.9 8.5 5.9 11.7 0 3.8-4.1 7.7-10.3 9.5-5.5 1.6-28.1 1.6-37.3-.1l-7.2-1.2V56.8l2.6.7c1.5.3 7 2.4 12.2 4.6z"/></svg>