<?xml version="1.0" encoding="UTF-8"?><!DOCTYPE svg PUBLIC "-//W3C//DTD SVG 1.1//EN" "http://www.w3.org/Graphics/SVG/1.1/DTD/svg11.dtd"><svg xmlns="http://www.w3.org/2000/svg"><symbol id="basket" viewBox="0 0 32 32"><title>basket</title><path fill="#ff7cb0" d="M13.333 10.667H16v6.667h-2.667v-6.667zM18.667 10.667h2.667v6.667h-2.667v-6.667zM26.667 14.667L24 17.334v-6.667h2.667z"/><path fill="#111" d="M30 6.667H10c-.4 0-.667-.267-.667-.667V3.333c0-1.133-.867-2-2-2H0v1.333h.067c.267 1.333 1.333 2.333 2.667 2.6.267 1.533 1.667 2.733 3.267 2.733h2v9.333h1.333V7.865c.2.067.4.133.667.133h20c.4 0 .667.267.667.667v4.667c0 .533-.333 1.467-.733 1.867l-4.2 4.667c-.333.4-1.2.8-1.733.8h-14c-1.133 0-2 .867-2 2v1.4c-1.533.333-2.667 1.667-2.667 3.267a3.3 3.3 0 0 0 3.333 3.333c1.6 0 2.933-1.133 3.267-2.667h5.467c.333 1.533 1.667 2.667 3.267 2.667 1.867 0 3.333-1.467 3.333-3.333S22.535 24 20.669 24c-1.6 0-2.933 1.133-3.267 2.667h-5.467a3.272 3.272 0 0 0-2.6-2.6v-1.4c0-.4.267-.667.667-.667h14c.933 0 2.067-.533 2.733-1.2l4.2-4.667c.6-.667 1.067-1.867 1.067-2.8V8.666c0-1.133-.867-2-2-2zm-28.533-4h5.867c.4 0 .667.267.667.667v.667H3.334c-.867 0-1.6-.533-1.867-1.333zm4.533 4c-.867 0-1.6-.533-1.867-1.333H8v1.333H6zm14.667 18.666c1.133 0 2 .867 2 2s-.867 2-2 2-2-.867-2-2 .867-2 2-2zm-10 2c0 1.133-.867 2-2 2s-2-.867-2-2 .867-2 2-2 2 .867 2 2z"/><path fill="#303033" d="M20.667 28.333c.533 0 1-.467 1-1s-.467-1-1-1c-.533 0-1 .467-1 1s.467 1 1 1z"/><path fill="#111" d="M7.667 27.333c0 .533.467 1 1 1s1-.467 1-1c0-.533-.467-1-1-1s-1 .467-1 1z"/></symbol>
    <symbol id="call" viewBox="0 0 32 32"><title>call</title><path fill="none" stroke-linecap="round" stroke-linejoin="round" d="M16.53 23.47c-3.644-1.644-6.488-4.523-8.046-8.094l-.039-.101 2.105-1.42c-.558-1.4-.882-3.022-.885-4.719v-.001h-5.03c0 10.068 8.162 18.23 18.23 18.23v-5.03a13.11 13.11 0 0 1-4.953-.977l.088.032zM15.365 10.635a6 6 0 0 1 6 6M15.365 7.635a9 9 0 0 1 9 9M15.365 4.635c6.627 0 12 5.373 12 12"/></symbol><symbol id="delivery" viewBox="0 0 32 32"><title>delivery</title><path d="M2.494 19.503h18.755v2.594H7.604a2.916 2.916 0 0 0-2.736-1.918 2.916 2.916 0 0 0-2.718 1.869 1.242 1.242 0 0 1-.897-1.193v-.11c0-.687.556-1.242 1.242-1.242zm4.444 3.298c0 1.195-.972 2.167-2.167 2.167s-2.167-.972-2.167-2.167.972-2.167 2.167-2.167a2.17 2.17 0 0 1 2.167 2.167zm-.662 0c0-.829-.675-1.504-1.504-1.504s-1.504.675-1.504 1.504.675 1.504 1.504 1.504 1.504-.675 1.504-1.504zm22.564 0c0 1.195-.972 2.167-2.167 2.167s-2.167-.972-2.167-2.167.972-2.167 2.167-2.167a2.17 2.17 0 0 1 2.167 2.167zm-.663 0c0-.829-.675-1.504-1.504-1.504s-1.504.675-1.504 1.504.674 1.504 1.504 1.504 1.504-.675 1.504-1.504zM32 16.577v4.899a.414.414 0 0 1-.414.414h-2.165c-.459-1.008-1.474-1.712-2.652-1.712s-2.193.703-2.652 1.712h-1.46a.414.414 0 0 1-.414-.414v-9.84c0-.229.186-.414.414-.414h5.451c.229 0 .576.076.828.414L32 16.576zm-1.931-1.076l-1.863-3.091c-.144-.266-.321-.414-.953-.414h-3.381a.414.414 0 0 0-.414.414v3.091c0 .229.186.414.414.414h5.782a.414.414 0 0 0 .415-.414zm1.613 4.705a.386.386 0 0 0-.772 0v.732a.386.386 0 0 0 .772 0v-.732zM0 18.762h21.249V7.032H0v11.73z"/></symbol><symbol id="fb" viewBox="0 0 32 32"><title>fb</title><path d="M22.333 12H18V9.333C18 8.597 18.597 8 19.333 8H22V4h-3.333a5.333 5.333 0 0 0-5.333 5.333V12h-2.667v4h2.667v12h4.667V16h3.333z"/></symbol><symbol id="ig" viewBox="0 0 32 32"><title>ig</title><path d="M20.667 4h-9.333a7.333 7.333 0 0 0-7.333 7.333v9.333a7.333 7.333 0 0 0 7.333 7.333h9.333A7.333 7.333 0 0 0 28 20.666v-9.333A7.333 7.333 0 0 0 20.667 4zM26 20.667A5.339 5.339 0 0 1 20.667 26h-9.334A5.339 5.339 0 0 1 6 20.667v-9.334A5.339 5.339 0 0 1 11.333 6h9.334A5.339 5.339 0 0 1 26 11.333z"/><path d="M16 10a6 6 0 1 0 6 6 6 6 0 0 0-6-6zm0 10a4 4 0 1 1 4-4 4.005 4.005 0 0 1-4 4zM23.6 9.733a1.333 1.333 0 1 1-2.667 0 1.333 1.333 0 0 1 2.667 0z"/></symbol><symbol id="li" viewBox="0 0 32 32"><title>li</title><path d="M0 0h32v32H0V0z"/><path fill="#fff" d="M9.374 4.752H4.75v22.493h13.605v-4.414H9.374V4.752zM22.877 13.768v13.48h4.373v-13.48h-4.373zM27.243 4.755h-4.365v4.364h4.365V4.755z"/></symbol><symbol id="search" viewBox="0 0 32 32"><title>search</title><path fill="none" stroke-miterlimit="10" stroke-linecap="round" stroke-linejoin="round" d="M24 12.5a8 8 0 1 1-16 0 8 8 0 0 1 16 0z"/><path fill="none" stroke="#000" stroke-width=".5" stroke-miterlimit="10" stroke-linecap="round" stroke-linejoin="round" d="M20.45 22.05l-1.05-2.3"/><path fill="none" stroke="#000" stroke-width="2" stroke-miterlimit="10" stroke-linecap="round" stroke-linejoin="round" d="M20.45 22.05L23 27.5"/><path fill="none" stroke="#000" stroke-width=".5" stroke-miterlimit="10" stroke-linecap="round" stroke-linejoin="round" d="M18.1 6.85c1.35.5 2.45 1.45 3.15 2.65"/></symbol><symbol id="vk" viewBox="0 0 32 32"><title>vk</title><path d="M28.73 9.333h-4.387a.99.99 0 0 0-.87.517l-.003.005s-1.75 3.223-2.312 4.308c-1.512 2.92-2.491 2.003-2.491.648v-4.673c0-.813-.659-1.472-1.472-1.472h-3.299a2.64 2.64 0 0 0-2.33 1.076l-.005.007s1.675-.271 1.675 1.986c0 .56.029 2.17.055 3.52v.024a.973.973 0 0 1-1.697.65l-.001-.001a28.314 28.314 0 0 1-3.261-5.867l-.07-.191a.925.925 0 0 0-.839-.537H3.431a.677.677 0 0 0-.633.917l-.002-.005c1.21 3.32 6.424 13.754 12.376 13.754h2.505a.99.99 0 0 0 .99-.99v-1.513a.972.972 0 0 1 1.638-.708l2.998 2.817c.259.244.609.394.994.394h3.937c1.899 0 1.899-1.318.864-2.337-.729-.718-3.358-3.489-3.358-3.489a1.354 1.354 0 0 1-.102-1.768l-.002.003c.85-1.118 2.24-2.949 2.829-3.733.806-1.072 2.264-3.343.265-3.343z"/></symbol>
    <symbol id="rub" viewBox="0 0 32 32"><title>rub</title><path d="M23.196 10.089q0-1.786-1.161-2.893t-3.054-1.107h-5.714v8h5.714q1.893 0 3.054-1.107t1.161-2.893zM27.429 10.089q0 3.446-2.259 5.625t-5.83 2.179h-6.071v2.107h9.018q0.25 0 0.411 0.161t0.161 0.411v2.286q0 0.25-0.161 0.411t-0.411 0.161h-9.018v3.429q0 0.25-0.17 0.411t-0.402 0.161h-2.982q-0.25 0-0.411-0.161t-0.161-0.411v-3.429h-4q-0.25 0-0.411-0.161t-0.161-0.411v-2.286q0-0.25 0.161-0.411t0.411-0.161h4v-2.107h-4q-0.25 0-0.411-0.161t-0.161-0.411v-2.661q0-0.232 0.161-0.402t0.411-0.17h4v-11.232q0-0.25 0.161-0.411t0.411-0.161h9.625q3.571 0 5.83 2.179t2.259 5.625z"></path></symbol>
    <symbol id="check" viewBox="0 0 32 32"><title>check</title><path fill-rule="evenodd"  fill="rgb(255, 124, 176)" d="M8.398,17.035 L0.012,8.615 L2.155,6.909 L7.008,10.663 C8.989,8.333 13.399,3.690 19.477,0.011 L19.992,1.182 C14.411,6.251 9.841,13.385 8.398,17.035 Z"/></symbol>
    <symbol id="arrow" viewBox="0 0 32 32"><title>arrow</title><path fill-rule="evenodd"  fill="rgb(51, 51, 51)" d="M7.010,-0.002 L0.002,-0.000 L2.862,4.001 L3.576,4.001 L7.010,-0.002 Z"></path></symbol>
</svg>
