<svg version="1" xmlns="http://www.w3.org/2000/svg" width="4152" height="4152" viewBox="0 0 3114.000000 3114.000000"><path d="M2637 517.7c-1.4.6-13.7 6.5-52.5 25.3-19 9.2-63.1 30.8-103 50.3-42.7 20.9-194.2 96.7-238 119-54.5 27.8-108 55.2-133 68.2-29.7 15.5-59.7 31.1-67 35-4.4 2.3-14.7 7.7-23 12-8.2 4.3-17.7 9.2-21 11-3.3 1.8-11.4 6-18 9.5-6.6 3.4-14.7 7.7-18 9.5-3.3 1.8-10.4 5.6-15.7 8.4-5.3 2.8-16.1 8.5-24 12.7-7.9 4.2-17.7 9.4-21.8 11.7-4.1 2.2-11.3 6-16 8.5-4.7 2.4-10.7 5.7-13.5 7.2-2.7 1.6-14.7 8-26.5 14.3-11.8 6.3-26 14-31.5 17s-13.6 7.3-18 9.7c-4.4 2.3-9.3 5-11 6-3.5 2.1-21.7 11.7-26 13.8-1.6.9-4.1 2.3-5.5 3.2-1.4 1-5.9 3.4-10 5.5s-14 7.5-22 12c-22.5 12.7-24.1 13.5-25.3 12.8-.5-.3-.7-.2-.4.3.3.6-2.7 2.7-6.6 4.7-7.9 4.1-12.9 6.8-19.7 10.8-2.5 1.5-8.1 4.6-12.5 6.9-10.3 5.5-16.9 9.2-17.5 10.1-.3.3-1.6 1-3 1.4-1.4.4-3.6 1.5-5 2.5-1.4.9-5.1 3.1-8.2 4.9-12 6.5-17.4 9.4-22.3 12-2.7 1.4-5.2 2.9-5.5 3.2-.3.4-2.3 1.5-4.5 2.6-4.9 2.4-8.8 4.6-9.5 5.4-.6.8-4.7 2.9-5.5 2.9-.3 0-.3-.5.1-1.2s.3-.8-.5-.4c-.6.4-.9 1.1-.6 1.6.3.4-1 1.5-2.8 2.4-1.7.9-6.6 3.5-10.7 5.7s-8 3.7-8.7 3.5c-.7-.3-1 .1-.7.9.6 1.4-4.2 4.5-7 4.5-.8 0-1.6.3-1.8.8-.3.8-13.3 8.6-17 10.2-2.2.9-3 1.4-8.8 5.1-3.4 2.1-6 3-6 2 0-.4 1.8-1.6 4-2.7 3.2-1.5 4-2.4 4-4.7 0-1.5.5-2.7 1.1-2.7.6 0 .8.9.4 2-.5 1.4-.2 2 .9 2 2.2 0 2-2.3-.4-4.5-1.4-1.3-2-3.1-2-6.2v-4.3h-8v-16h-8v-8h-8v-16h-8v-8h-8v-16h-8v-8h-8v-4c0-4 0-4-4-4h-3.9l-.3-9.3-.3-9.2-4.2-.1c-2.4 0-4.9.4-5.5.9-.8.5-.5.6 1 .2 1.2-.3 2.2-.2 2.2.2 0 .5-1.9 1-4.1 1-2.3 0-4.4.5-4.8 1.1-.3.5-3.5 2.4-7.1 4.2-3.6 1.8-6.7 3.5-7 3.9-.5.6-8.1 4.6-19.1 10.1-2.8 1.4-4.7 2.9-4.2 3.4.4.5.1.7-.7.4-.8-.2-4.6 1.4-8.5 3.7-3.8 2.3-7.8 4.4-8.8 4.8-1.1.4-1.5 1.2-1.1 1.8.4.8.3.9-.5.5-.6-.4-2.6.1-4.4 1.2-1.7 1-22.9 13-46.9 26.7-25.1 14.3-43.4 25.3-43.1 26 .4.5.3.7-.2.3-.4-.4-2.1 0-3.8.8-2.4 1.3-2.7 1.8-1.6 2.6s1 .9-.4.4c-2-.7-6.3 1.5-21.7 10.9-5.2 3.2-11.1 6.7-13 7.7-1.9 1.1-9.5 5.7-16.8 10.2-14.5 8.8-16.9 10.3-22.2 13.3-1.9 1.1-16.1 9.8-31.5 19.3-15.4 9.5-29.5 18.2-31.2 19.2-1.8 1.1-3 2.5-2.6 3.1.3.5.1.7-.5.3-.6-.3-3.3.8-6.2 2.6-3.7 2.3-4.7 3.4-3.8 4.1.9.6.8.7-.5.3-2.2-.7-6 1.1-5.2 2.5.4.5.3.8-.2.7-1.7-.4-5.3 1.4-4.7 2.4.4.7.2.8-.4.4-.6-.4-2.3.1-3.7 1-2 1.3-2.3 1.9-1.3 2.6.9.6.6.7-.9.3-1.3-.3-2.3-.2-2.3.3 0 .6-1.1 1.3-2.4 1.6-1.4.3-3.9 2.1-5.7 3.8-1.8 1.8-2.9 2.7-2.4 1.9.9-1.6-4.7 1.6-10.1 5.6-1.7 1.3-3.6 2.3-4.2 2.3-.6 0-1.2.4-1.4.8-.2.4-2.7 2.3-5.5 4.2-2.9 1.8-5.1 3.5-4.8 3.8.2.3 1.3-.1 2.2-.9 1.6-1.3 1.7-1.2.5.3-.8.9-1.1 2.1-.8 2.7.3.5.3 1.7 0 2.6-.5 1.2-1.4 1.4-3.4 1-1.6-.3-3-.3-3.3.2-.5.7 1.1.9 11.6 1.2 3.6.1 3.7.2 3.7 4.1v4h8v16h8v8h8v8h8v16h8v8h8v16h8v8h4c4 0 4 0 4 3.9 0 3.8.2 3.9 3.8 4.5 2 .3 4.4.5 5.2.4 3.2-.3 5.1.2 4.4 1.3-.4.8-.9.8-1.7 0-1.5-1.5-3-1.4-2.5.1.5 1.4-.8 3-3.2 4.1-.8.4-2.8 1.6-4.5 2.7-1.6 1.1-4.3 2.7-6 3.6-1.6.9-3.2 2-3.5 2.4-.3.4-2.5 1.8-5 3-2.4 1.3-6.1 3.3-8.1 4.7-2.2 1.4-4.3 2.1-5.5 1.7-1.3-.4-1.5-.3-.6.3.9.7-.3 2-4.8 4.7-3.3 2-6.5 3.4-7 3.1-.6-.4-.9-.1-.8.5.2.6-1.6 2.2-3.9 3.4-2.3 1.3-4 2.6-3.6 3 .3.3 0 .6-.8.6s-4.8 2.1-8.9 4.8c-4.1 2.6-10.6 6.7-14.5 9-10.3 6.3-10.3 6.3-18.1 11.4-4 2.7-7.5 4.8-7.8 4.8-.6 0-13.9 8.2-14.6 9.1-.3.3-2.5 1.7-5 3.1-2.5 1.4-7.7 4.6-11.7 7.1-3.9 2.6-7.4 4.7-7.8 4.7-.3 0-1.1.5-1.8 1.1-1.8 1.6-22.6 14.9-23.3 14.9-.3 0-2.7 1.4-5.3 3.2-2.5 1.7-12.2 7.9-21.6 13.8-33.5 21.1-58.2 36.8-71.7 45.6-7.6 4.9-17.2 11.1-21.5 13.8-4.3 2.8-13.6 8.8-20.8 13.4-7.1 4.7-17.5 11.4-23 15-5.5 3.6-14.9 9.7-21 13.7-6 4-16.4 10.7-23 15-32.4 21.2-122.5 81.4-157 105-5.5 3.7-15.6 10.7-22.5 15.3-6.9 4.7-15.7 10.9-19.7 13.6-4 2.8-13.3 9.4-20.8 14.6-106 74-145 101.8-203.9 144.9-11 8-20.4 14.9-21 15.3-2 1.3 25.2 39.8 48.3 68.3 37.1 45.9 78.3 90.9 134 146.5 47.7 47.6 60.3 59.6 100.6 95.5 36.6 32.6 91 76.5 94.9 76.5.7 0 5.9-1.3 11.7-2.9 5.7-1.6 14.7-4.1 19.9-5.5 5.2-1.3 23.7-6.4 41-11.1 17.3-4.8 37.1-10.2 44-12 6.9-1.8 28.9-7.9 49-13.4s40-10.9 44.2-12c4.3-1.2 24.1-6.6 44-12.1 51.6-14.1 55.7-15.1 53.2-13.4-1.1.8-15.1 10.9-31 22.5s-30.9 22.5-33.3 24.3c-4.8 3.4-113.3 84.5-121.8 91.1-2.8 2.2-5.2 4.3-5.2 4.6-.2 1.6 26.4 30.4 48.4 52.4 26.2 26.3 37.5 37.2 56.5 54.5 6.3 5.8 14.2 13 17.5 16.1 21.5 19.8 69.6 61.8 109.5 95.5 14.8 12.5 23.8 19.9 62.5 51.9 34.8 28.7 111.8 89.3 120.1 94.5 1.9 1.1 4.7-.1 28-12 14.2-7.3 36.5-18.7 49.4-25.3 12.9-6.6 32.5-16.6 43.5-22.2 11-5.6 28.8-14.7 39.5-20.2s31.2-16 45.5-23.3c14.3-7.3 34.1-17.4 44-22.5 9.9-5.1 38.5-19.7 63.5-32.5s56.1-28.6 69-35.2c12.9-6.6 34.1-17.5 47-24.1 12.9-6.6 31.2-15.9 40.5-20.7 9.4-4.8 27.8-14.3 41-21 13.2-6.7 33.5-17.1 45-23 11.6-5.9 31.1-15.9 43.5-22.3 33.7-17.2 64.3-32.8 85.5-43.7 10.5-5.3 30.3-15.5 44-22.5 13.8-7 34.5-17.6 46-23.5 11.6-5.9 40.1-20.5 63.5-32.5 23.4-11.9 49.8-25.5 58.8-30.2l16.3-8.5-6.3-3.8c-3.5-2-12.1-7.1-19.3-11.3-18.1-10.4-32.2-18.6-68.5-39.7-35.5-20.7-37-21.5-56.8-33-7.9-4.5-14-8.6-13.5-9 .9-.9 35-21.6 57.3-34.8 8-4.7 20.6-12.1 28-16.5 26.8-15.9 108.6-62.4 128.5-73.2 2.2-1.2 18.9-10.2 37-20.2 32.6-17.8 54.7-29.6 80-42.8 7.2-3.7 16.8-8.8 21.5-11.3 26-13.8 148.2-74.5 172-85.5 4.1-1.9 16.3-7.6 27-12.7 59.5-28.1 137.1-62.6 196-87 13.5-5.5 27-11.2 30-12.5 26.9-11.5 124.9-49 166.3-63.6 11.1-3.9 24.9-8.8 30.7-10.9 24.1-8.7 90.6-29.9 132.5-42.3l8-2.3 1.4-5.5c2.3-9.2 1.9-39.8-.7-55.4-3.9-22.8-12-50.9-22.2-77.5-4.4-11.4-7.3-18-17-40-4.4-10-21.3-42.9-28.7-56-3.3-5.8-7.2-12.8-8.8-15.5-1.5-2.8-4.2-7.3-6-10-1.8-2.8-5.5-8.8-8.4-13.5-17-28-42.2-63.5-65-91.5-47.4-58.2-90.1-93.3-119.3-97.8-7.1-1.1-11.3-.4-33.8 5.8-4.7 1.3-17.3 4.7-28 7.5s-26.9 7.1-36 9.5c-38.8 10.3-88 23.3-138 36.5-29.4 7.8-56.6 15-60.5 16-14.9 4-50.6 13.4-62.5 16.5-6.9 1.8-20.4 5.4-30 8-29.4 7.8-31.9 8.5-43.4 11.5-11 2.8-57 15-71.6 18.9-4.1 1.1-27.3 7.2-51.5 13.6-24.2 6.4-59.3 15.7-78 20.6-18.7 5-39.2 10.4-45.5 12-6.3 1.7-13.7 3.7-16.5 4.5-2.7.8-4.5 1-4 .5.9-.8 42-22.6 70.5-37.3 6.9-3.6 19.9-10.4 29-15.1 47.7-24.8 183.2-92.8 232-116.4 53.1-25.8 85.4-41.3 113-54.3 9.1-4.3 22.3-10.5 29.3-13.9 7-3.4 12.9-6.1 13.1-6.1.2 0 5.5-2.4 11.7-5.4 13.1-6.2 46.5-21.7 61.9-28.6 5.8-2.6 13.9-6.3 18-8.3 4.1-1.9 16.7-7.6 28-12.7s25.5-11.5 31.5-14.3c14.4-6.5 50.4-22.5 62.5-27.7 3.6-1.5 12.8-5.6 20.5-9 12.6-5.5 110.9-47.7 136-58.3 9.8-4.2 9.9-4.3 11.3-8.7 2.2-6.7 2.1-27.5-.2-37.7-3-14.2-9.8-32.7-17.7-48.6-29.4-58.5-88-128.6-157.3-187.8-63.3-54-127.9-91.6-175.2-101.9-9.4-2-13.6-2.3-16.4-1.3zM1455 985c0 .5-.7 1-1.5 1s-1.5-.5-1.5-1c0-.6.7-1 1.5-1s1.5.4 1.5 1zm-15 6.9c0 1.6-3.8 2.3-5.7 1.1-1.5-1-1.4-1 .9-.6 1.5.4 3 .2 3.3-.4.8-1.3 1.5-1.3 1.5-.1zm-8.5 2.1c-.3.5-1.4 1-2.3.9-1.4 0-1.3-.2.3-.9 2.7-1.1 2.7-1.1 2 0zm-4.6 4.2c-1.9.7-2.1 1.1-.9 1.8.8.5 1.1 1.2.7 1.7-.5.4-1.2.2-1.6-.6-.5-.7-1.1-1.2-1.5-1.2-1.9.3-2.6 0-2.6-1.1 0-.9.3-.9 1.1-.1s1.6.6 3-.8c1.1-1.1 2.5-1.7 3.1-1.3.7.5.2 1.1-1.3 1.6zm5.1-1.2c0 .5-.5 1-1.1 1-.5 0-.7-.5-.4-1 .3-.6.8-1 1.1-1 .2 0 .4.4.4 1zm-1 3c0 .5-.4 1-1 1-.5 0-1-.5-1-1 0-.6.5-1 1-1 .6 0 1 .4 1 1zm-12 1c-.8.5-1.9 1-2.5 1-.5 0-.3-.5.5-1s2-1 2.5-1c.6 0 .3.5-.5 1zm-5.4 3.5c-1.1.8-2.7 1.5-3.6 1.5-2.5 0-3.1 1.1-1.7 2.8 1 1.3.9 1.4-1 .2-2-1.3-2-1.5-.5-2.7.9-.7 2.5-1.3 3.4-1.3.9 0 2-.5 2.3-1 .3-.6 1.2-1 1.8-1 .7 0 .3.7-.7 1.5zm-.6 3.5c0 .5-.7 1-1.6 1-.8 0-1.2-.5-.9-1 .3-.6 1-1 1.6-1 .5 0 .9.4.9 1zm-15 5c-1.4 1.1-3.2 2-4 2-.8 0-.1-.9 1.5-1.9 3.9-2.6 5.7-2.6 2.5-.1zm-.1 3.4c-.2.2-1.5.7-2.9 1l-2.5.7 2.5-1.5c2.1-1.2 4.2-1.4 2.9-.2zm-17.9 6.6c0 .5-.4 1-.9 1s-1.8.3-2.8.6c-1.6.6-1.6.5.2-.9 2.3-1.9 3.5-2.1 3.5-.7zm3.5 1c-.3.5-1.2 1-1.8 1-.7 0-.6-.4.3-1 1.9-1.2 2.3-1.2 1.5 0zm-40.8 21.6c-.3.3-1.2.4-1.9.1-.8-.3-.5-.6.6-.6 1.1-.1 1.7.2 1.3.5zm172.1 53.1c-1 .2-1.8.9-1.8 1.5s-.3.9-.6.5c-1-1 .6-2.7 2.4-2.6 1.5.1 1.5.2 0 .6zm-6.9 7.7c-1.1 1.1-11.9 6.6-11.9 6.1 0-1.3 2.6-3.1 6.5-4.8 3.9-1.5 6.3-2.1 5.4-1.3zm-9.9 1c0 .3-.4.8-1 1.1-.5.3-1 .1-1-.4 0-.6.5-1.1 1-1.1.6 0 1 .2 1 .4zm-6.5 8.6c-3.4 2.3-4.5 2.5-4.5.8 0-.6.3-.8.6-.5.4.3 1.6 0 2.8-.8 1.1-.8 2.5-1.5 3.1-1.5.5 0-.3.9-2 2zm-7.5 0c0 .5-.4 1-1 1-.5 0-1-.5-1-1 0-.6.5-1 1-1 .6 0 1 .4 1 1zm-.5 4.5c-3.9 3.2-5.4 3.2-1.8 0 1.5-1.3 3.3-2.4 3.8-2.5.6 0-.3 1.1-2 2.5zm-10.5 3.5c0 .5-.7.7-1.5.4-.8-.4-1.2-1-.9-1.5.6-1.1 2.4-.2 2.4 1.1zm-267 0c0 .5-.2 1-.4 1-.3 0-.8-.5-1.1-1-.3-.6-.1-1 .4-1 .6 0 1.1.4 1.1 1zm266.4 3.1c-.6 1-4.4 1.8-4.4 1 0-.4.3-1 .6-1.4.8-.8 4.4-.5 3.8.4zm-8.4 4.3c0 .2-.7.6-1.5 1-.8.3-1.5.1-1.5-.4 0-.6.7-1 1.5-1s1.5.2 1.5.4zm-5 3c0 .2-.7.6-1.5 1-.8.3-1.5.1-1.5-.4 0-.6.7-1 1.5-1s1.5.2 1.5.4zm-319.3 31.2c-.3.3-1.2.4-1.9.1-.8-.3-.5-.6.6-.6 1.1-.1 1.7.2 1.3.5zm-2.4 3.6c-.8 1.4-1.9.8-2-1.2-.1-1.6.1-1.7 1.2-.7.7.6 1.1 1.5.8 1.9zm-9.8 4.8c.3.6-.1.7-.9.4-1.8-.7-2.1-1.4-.7-1.4.6 0 1.3.4 1.6 1zm-3.3 3.3c-1.4.6-2.6.7-3.2.1-.5-.5.4-.9 2.3-1 3-.1 3-.1.9.9zm-4.5 3.9c-.3.8-.6.5-.6-.6-.1-1.1.2-1.7.5-1.3.3.3.4 1.2.1 1.9zm-5.1 1.3c-1.9 1.4-3.6 1.2-3.6-.5 0-.5.6-.7 1.4-.4.8.3 1.7 0 2.1-.6.4-.6 1-.8 1.3-.5.4.4-.2 1.3-1.2 2zm-5.2 2c-.6 1.6-2.4 2.1-2.4.7 0-1.1 1.1-2.2 2.1-2.2.5 0 .6.7.3 1.5zm9.6-.5c0 .5-.4 1-1 1-.5 0-1-.5-1-1 0-.6.5-1 1-1 .6 0 1 .4 1 1zm-15.2 6c.3.8 0 1-.7.6s-2-.5-2.9-.1c-1.4.5-1.2.9 1.3 2.1 1.7.8 2.2 1.2 1.2.9-4.9-1.4-7.2-1.6-5.8-.7 1 .7.7.9-1.3.9h-2.6l2.3-1.6c5.8-4.2 7.7-4.7 8.5-2.1zm-16 9.6c0 1.9-.3 2.2-.9 1.3-.8-1.2-1-1.2-1.8 0-.5.7-1.4 1-2.1.6-.8-.5-.3-1.3 1.7-2.6 1.5-1 2.9-1.9 2.9-1.9.1 0 .2 1.2.2 2.6zm164.7 55.4c-.3.5-1.2 1-1.8 1-.7 0-.6-.4.3-1 1.9-1.2 2.3-1.2 1.5 0zm-19.5 11.5c0 .2-1.4 1.2-3.1 2.1-1.7.8-2.8 1.1-2.4.4.4-.6 1.7-1.5 2.9-2 2.7-1.1 2.6-1.1 2.6-.5zm-19.6 12c-1 .8-2.3 1.5-2.8 1.5-.6 0-.1-.7 1-1.5 1-.8 2.3-1.5 2.8-1.5.6 0 .1.7-1 1.5zm-4.9 3.5c-.3.5-1.2 1-1.8 1-.7 0-.6-.4.3-1 1.9-1.2 2.3-1.2 1.5 0zm-11.2 2.8c-.2.7.2 1.2.8 1.2.5 0 .7.4.4 1-.9 1.5-2.5 1.2-2.5-.5 0-.8-.4-1.5-1-1.5-.5 0-1-.5-1-1.1 0-.6.8-.9 1.8-.7.9.2 1.6 1 1.5 1.6zm6.3-.3c-1.1.8-2.5 1.5-3 1.5-.6 0-.2-.7.8-1.5 1.1-.8 2.5-1.5 3-1.5.6 0 .2.7-.8 1.5zm-9.8 6c-1.5 1.2-9.8 5.6-9.8 5.2 0-.2 1.8-1.7 4-3.2 2.5-1.7 4-3.6 4.1-4.9 0-2 .1-1.9 1 .3.5 1.3.8 2.5.7 2.6zm-17.8.4c0 .6-.4 1.3-1 1.6-.5.3-1-.1-1-.9 0-.9.5-1.6 1-1.6.6 0 1 .4 1 .9zm-5.2 8.9c-1 .2-1.8.8-1.8 1.4 0 .6-.3.8-.6.5-1.1-1 1.7-3.8 3-3 .7.5.5.9-.6 1.1zm5.5 1.4c-2.5 1.6-5 2.7-5.7 2.5-.6-.3.3-1 1.9-1.8 4-1.7 4.1-1.9 2.7-2.8-.6-.4.3-.7 2.2-.7h3.4l-4.5 2.8zM1558.5 933.9c-.3.5-1.9 1.2-3.6 1.6-1.7.4-2.8.9-2.5 1.2.7.8 7.6-1.7 7.6-2.8 0-1.2-.7-1.2-1.5 0zM1535.9 942.2c-.6 2.1-.5 3.7.2 3.2.5-.3.7-.9.4-1.4-.3-.4.1-1.1.7-1.3 1-.4 1-.6.1-.6-.7-.1-1.3 0-1.4.1zM1531.8 944.7c.7.3 1.6.2 1.9-.1.4-.3-.2-.6-1.3-.5-1.1 0-1.4.3-.6.6zM1519.6 948.8c-.3.5.8.6 2.5.4 1.6-.2 2.9-.6 2.9-.8 0-.8-4.9-.4-5.4.4zM1515.8 950.7c.7.3 1.6.2 1.9-.1.4-.3-.2-.6-1.3-.5-1.1 0-1.4.3-.6.6zM1509.5 952.5l-3 1.3 3.7-.1c2.1 0 3.3-.4 2.7-.8-.8-.4-.7-.8.2-1.2.8-.3 1-.5.4-.5-.5 0-2.3.6-4 1.3zM1498.3 957.2c-3.2 1.6-2.5 4.3 1.1 4.4l3.1.1-3-1.3c-3.1-1.3-2.8-1.6 1.4-1.8 1.3-.1 2.6-.7 2.8-1.4.6-1.5-2.3-1.5-5.4 0zm4.4.4c-.3.3-1.2.4-1.9.1-.8-.3-.5-.6.6-.6 1.1-.1 1.7.2 1.3.5z"/><path d="M1477 967.1c-6.8 3.7-7.7 4.6-2.6 2.5 3.1-1.3 4.2-1.4 5.5-.4 1.4 1.2 1.4 1.1.2-.4-1.2-1.6-1-2 2-3.3 1.9-.8 2.7-1.4 1.9-1.4-.8.1-4 1.4-7 3zM1483.5 967c-.3.6.1.7.9.4 1.8-.7 2.1-1.4.7-1.4-.6 0-1.3.4-1.6 1zM1485 969c-.8.5-1 1-.5 1 .6 0 1.7-.5 2.5-1s1.1-1 .5-1c-.5 0-1.7.5-2.5 1zM1462.5 975.2c-4.5 2.7-4.5 3 .2 1.1.9-.4 1.4-.2 1 .3-.3.6 1 1 3 .9 2 0 3.8-.6 4-1.3.3-.6-.2-1.2-1.1-1.2-.8 0-1.8-.5-2.2-1.1-.5-.8.1-1 1.9-.7 1.5.3 2.4.1 2.1-.3-.9-1.5-3.7-.8-8.9 2.3zm5.5.8c1.3.9 1.3 1 0 1-.8 0-2.2-.5-3-1-1.3-.9-1.3-1 0-1 .8 0 2.2.5 3 1zM1452.7 979.9l-2.8 1.8 2.8-.1c2-.1 2.9-.6 2.9-1.9 0-.9 0-1.7-.1-1.6 0 0-1.3.8-2.8 1.8zM1627 1035c.8.5 2 1 2.5 1 .6 0 .3-.5-.5-1s-1.9-1-2.5-1c-.5 0-.3.5.5 1zM1538.8 1082.7c.7.3 1.6.2 1.9-.1.4-.3-.2-.6-1.3-.5-1.1 0-1.4.3-.6.6zM1540.2 1085c-2.3 1.7-4.2 3.2-4.2 3.5 0 .6 4.7-2.2 7.2-4.3.9-.8 2.2-1.1 2.9-.6.8.4 1 .3.5-.4-1.1-1.7-1.9-1.5-6.4 1.8zM1523.1 1087.1c-1.9.8-2.1 1.2-1.1 2.4.7.8 2 1.5 2.9 1.4 1 0 1.1-.2.4-.6-2.4-.9-1.4-2.5 1.1-1.9 1.5.4 2.8.1 3.2-.6.5-.7.2-.9-.8-.5-.9.3-1.9.2-2.4-.3-.5-.4-2-.4-3.3.1zM1531 1091c-.8.5-1 1-.5 1 .6 0 1.7-.5 2.5-1s1.1-1 .5-1c-.5 0-1.7.5-2.5 1zM1525.5 1093c-.3.5.3 1 1.5 1s1.8-.5 1.5-1c-.3-.6-1-1-1.5-1s-1.2.4-1.5 1zM1070.8 1206.3c-3.7 2.1-4.8 3.7-2.8 3.7.6 0 1-.4 1-.8 0-1.5 5-3.2 7.8-2.6 2.6.5 2.6.5.8-1-2.4-2-2.3-2-6.8.7zM1060.9 1213l-2.4 2 2.8-1.1c1.5-.7 2.7-1.6 2.7-2.1 0-1.2-.5-1-3.1 1.2zM1061.6 1215.6c-1.1.8-1.6 1.4-1 1.4 1.3 0 3.9-1.8 3.4-2.4-.3-.2-1.4.2-2.4 1zM1054.6 1216.5c-1.1.8-1.6 1.5-1 1.5.5 0 1.8-.7 2.8-1.5 1.1-.8 1.6-1.5 1-1.5-.5 0-1.8.7-2.8 1.5zM1050.5 1220c-.7 1.2 1.2 1.2 4 0 1.8-.8 1.7-.9-.7-.9-1.5-.1-3 .3-3.3.9zM1046 1222c-.8.5-1.1 1.3-.6 1.7.5.4 1.1.2 1.3-.5.3-.6.9-1 1.4-.6.5.3.9 0 .9-.5 0-1.3-1-1.4-3-.1zM1051.5 1223.6c-.9.9-1.3 1.9-.9 2.3.4.3.9 0 1.1-.7.3-.6 1.1-1.2 1.9-1.2.8 0 1.4-.5 1.4-1 0-1.5-1.7-1.2-3.5.6zM1041.5 1225c-.3.6.1.7.9.4 1.8-.7 2.1-1.4.7-1.4-.6 0-1.3.4-1.6 1zM1037 1228.4c0 .2.7.7 1.6 1 .8.3 1.2.2.9-.4-.6-1-2.5-1.4-2.5-.6zM1034.6 1229.8c-.3.5.8 1.3 2.5 1.9 3.5 1.4 3.7 1 .5-1.1-1.4-.9-2.7-1.2-3-.8zM1030.6 1232.5c-1.1.8-1.5 1.5-.9 1.5s1.6-.7 2.3-1.5c1.6-1.9 1.1-1.9-1.4 0zM1023.5 1237c-.3.6.1.7.9.4 1.8-.7 2.1-1.4.7-1.4-.6 0-1.3.4-1.6 1zM1020.6 1238.9c-.3.4.6 1.3 1.9 1.9 3 1.4 3.1 1.2.5-1-1-1-2.2-1.4-2.4-.9zM1011.7 1244.7c-.3.5.5.8 1.8.8s2.1-.3 1.8-.8c-.2-.4-1-.7-1.8-.7s-1.6.3-1.8.7zM926 1302c-.9.6-1 1-.3 1 .6 0 1.5-.5 1.8-1 .8-1.2.4-1.2-1.5 0zM1151.1 1307.9c-.8.5-2 .7-2.7.4-.6-.2-1.5.1-1.9.6-.3.6-1.1.9-1.6.6-.5-.4-.9-.1-.9.6s-.3.9-.7.6c-.3-.4-1.2.1-2 1.1-.8.9-1.2 1.2-.9.5.4-.6.2-1.4-.3-1.7-.5-.3-1.2.1-1.5 1-1 2.5-.8 2.7 2.4 2 2-.4 3-.2 3 .7 0 .8.4.7 1-.3.5-.8 1-1.1 1-.6 0 .6.5.5 1.2-.2s2-1.2 2.9-1.2c1 0 1.9-1 2.1-2.5.3-1.4.5-2.5.4-2.5 0 0-.7.4-1.5.9zM1156 1309.3c-1.4.7-2.6 2.1-2.8 3.2-.4 1.9-.3 1.9 2-.3 1.3-1.2 3-2.2 3.6-2.2.7 0 1.2-.5 1.2-1 0-1.3-1-1.2-4 .3zM1149.8 1314.7c.7.3 1.6.2 1.9-.1.4-.3-.2-.6-1.3-.5-1.1 0-1.4.3-.6.6zM1145.6 1316.5c-1.1.8-1.5 1.5-.9 1.5s1.6-.7 2.3-1.5c1.6-1.9 1.1-1.9-1.4 0zM1131 1325c-.8.5-1.2 1.1-1 1.4.3.2 1.4-.2 2.4-1 2.2-1.5 1-1.9-1.4-.4zM1117 1333c-1.2.8-1.1 1 .8 1 1.2 0 2.2-.5 2.2-1 0-1.3-1.1-1.3-3 0z"/></svg>